<svg width="29" height="25" viewBox="0 0 29 25" fill="none" xmlns="http://www.w3.org/2000/svg">
<path fill-rule="evenodd" clip-rule="evenodd" d="M14.8039 0.524505C14.9697 0.358244 15.1667 0.226334 15.3836 0.13633C15.6005 0.046327 15.833 0 16.0679 0C16.3027 0 16.5352 0.046327 16.7521 0.13633C16.969 0.226334 17.166 0.358244 17.3319 0.524505L28.0438 11.2365C28.2101 11.4023 28.342 11.5993 28.432 11.8162C28.522 12.0331 28.5683 12.2656 28.5683 12.5005C28.5683 12.7353 28.522 12.9678 28.432 13.1847C28.342 13.4016 28.2101 13.5986 28.0438 13.7645L17.3319 24.4764C16.9966 24.8117 16.542 25 16.0679 25C15.5938 25 15.1391 24.8117 14.8039 24.4764C14.4686 24.1412 14.2803 23.6865 14.2803 23.2124C14.2803 22.7383 14.4686 22.2836 14.8039 21.9484L24.2554 12.5005L14.8039 3.05253C14.6376 2.88669 14.5057 2.68967 14.4157 2.47277C14.3257 2.25587 14.2794 2.02335 14.2794 1.78852C14.2794 1.55368 14.3257 1.32116 14.4157 1.10426C14.5057 0.887359 14.6376 0.690347 14.8039 0.524505Z" fill="white"/>
<path fill-rule="evenodd" clip-rule="evenodd" d="M0 12.5005C0 12.027 0.188097 11.5729 0.52291 11.2381C0.857723 10.9032 1.31183 10.7151 1.78533 10.7151H24.9946C25.4681 10.7151 25.9222 10.9032 26.257 11.2381C26.5918 11.5729 26.7799 12.027 26.7799 12.5005C26.7799 12.974 26.5918 13.4281 26.257 13.7629C25.9222 14.0977 25.4681 14.2858 24.9946 14.2858H1.78533C1.31183 14.2858 0.857723 14.0977 0.52291 13.7629C0.188097 13.4281 0 12.974 0 12.5005Z" fill="white"/>
</svg>
