<svg width="351" height="353" viewBox="0 0 351 353" fill="none" xmlns="http://www.w3.org/2000/svg">
<path d="M187.3 263.2C185.433 273.933 184.5 284.433 184.5 294.7C184.5 316.633 188.7 333.433 197.1 345.1C205.967 356.3 218.1 361.9 233.5 361.9C252.633 361.9 268.733 353.267 281.8 336C294.867 318.733 301.4 292.833 301.4 258.3C301.4 216.767 292.767 180.133 275.5 148.4C258.233 116.2 233.967 91.2333 202.7 73.5C171.9 55.7666 136.9 46.9 97.7 46.9C56.6334 46.9 20.4667 56.7 -10.8 76.3C-42.0667 95.4333 -66.3333 122.5 -83.6 157.5C-100.4 192.5 -108.8 232.167 -108.8 276.5C-108.8 320.367 -100.633 358.4 -84.3 390.6C-67.5 422.8 -43.9333 447.3 -13.6 464.1C16.7333 481.367 51.9667 490 92.1 490C138.3 490 185.667 477.633 234.2 452.9H237V498.4C194.067 523.133 146.467 535.5 94.2 535.5C44.2667 535.5 0.166674 524.533 -38.1 502.6C-75.9 480.667 -105.3 450.1 -126.3 410.9C-147.3 371.233 -157.8 325.733 -157.8 274.4C-157.8 222.133 -147.3 175.233 -126.3 133.7C-104.833 92.1667 -74.7333 59.7333 -36 36.4C3.2 12.6 48.2333 0.699994 99.1 0.699994C149.033 0.699994 193.133 12.3666 231.4 35.7C269.667 58.5666 299.067 89.1333 319.6 127.4C340.133 165.667 350.4 207.2 350.4 252C350.4 282.8 345.033 309.867 334.3 333.2C324.033 356.067 310.033 373.567 292.3 385.7C275.033 397.833 255.9 403.9 234.9 403.9C216.233 403.9 198.733 399.233 182.4 389.9C166.533 380.567 154.4 366.8 146 348.6C130.6 365.4 114.267 378.233 97 387.1C79.7333 395.967 62.7 400.4 45.9 400.4C20.7 400.4 1.56667 391.067 -11.5 372.4C-24.5667 353.733 -31.1 327.833 -31.1 294.7C-31.1 267.167 -26.6667 240.567 -17.8 214.9C-8.46666 189.233 5.53334 168.233 24.2 151.9C43.3333 135.567 66.9 127.4 94.9 127.4C117.767 127.4 139.7 133.467 160.7 145.6H204.8L187.3 263.2ZM61.3 356.3C72.9667 356.3 85.3333 353.267 98.4 347.2C111.933 340.667 125 331.333 137.6 319.2C136.667 310.8 136.2 304.267 136.2 299.6C136.2 291.2 136.9 282.567 138.3 273.7L152.3 181.3C132.7 173.367 114.967 169.4 99.1 169.4C70.1667 169.4 49.8667 181.3 38.2 205.1C26.5333 228.433 20.7 256.9 20.7 290.5C20.7 313.367 23.7333 330.167 29.8 340.9C35.8667 351.167 46.3667 356.3 61.3 356.3Z" fill="#F3F3F3"/>
</svg>
